<?xml version="1.0" encoding="UTF-8"?>
<svg width="494px" height="181px" viewBox="0 0 494 181" version="1.1" xmlns="http://www.w3.org/2000/svg" xmlns:xlink="http://www.w3.org/1999/xlink">
    <!-- Generator: Sketch 57.1 (83088) - https://sketch.com -->
    <title>full_light</title>
    <desc>Created with Sketch.</desc>
    <g id="full_light" stroke="none" stroke-width="1" fill="none" fill-rule="evenodd">
        <g id="Logo-(White-on-Red)">
            <g id="Group">
                <circle id="Oval" fill="#D32F2F" cx="91.0027778" cy="91.0027778" r="91.0027778"></circle>
                <path d="M105.558528,45.25 C125.686176,45.25 135.75,55.3008696 135.75,75.4026087 L135.75,135.75 L45.25,135.75 L45.25,45.25 L105.558528,45.25 L105.558528,45.25 Z M99.5351166,63.35 L63.35,63.35 L63.35,117.65 L117.65,117.65 L117.65,81.4415652 C117.65,69.3805217 111.611706,63.35 99.5351166,63.35 L99.5351166,63.35 Z" id="Combined-Shape" fill="#FFFFFF" transform="translate(90.500000, 90.500000) rotate(-315.000000) translate(-90.500000, -90.500000) "></path>
            </g>
        </g>
        <path d="M197,90 C197,74.4605611 197.46109,64.0603052 198.383285,58.7989204 C199.36696,53.5375355 200.873189,49.2856662 202.902017,46.0431849 C206.160439,39.8641167 211.386131,34.3580988 218.579251,29.5249663 C225.649411,24.6306548 234.471609,22.1223578 245.04611,22 C255.743569,22.1223578 264.657985,24.6306548 271.789625,29.5249663 C278.859786,34.3580988 283.96252,39.8641167 287.097983,46.0431849 C289.37273,49.2856662 290.940438,53.5375355 291.801153,58.7989204 C292.600388,64.0603052 293,74.4605611 293,90 C293,105.294723 292.600388,115.633801 291.801153,121.017544 C290.940438,126.401286 289.37273,130.714334 287.097983,133.956815 C283.96252,140.135883 278.859786,145.580723 271.789625,150.291498 C264.657985,155.185809 255.743569,157.755284 245.04611,158 C234.471609,157.755284 225.649411,155.185809 218.579251,150.291498 C211.386131,145.580723 206.160439,140.135883 202.902017,133.956815 C201.918343,131.937912 201.026901,130.010805 200.227666,128.175439 C199.48991,126.278893 198.875123,123.892952 198.383285,121.017544 C197.46109,115.633801 197,105.294723 197,90 Z M218,90.5 C218,103.593014 218.490519,112.453502 219.471572,117.081731 C220.329993,121.709959 222.077467,125.455114 224.714047,128.317308 C226.8601,131.057706 229.680585,133.28044 233.175585,134.985577 C236.60927,136.995202 240.717367,138 245.5,138 C250.343948,138 254.544018,136.995202 258.100334,134.985577 C261.472704,133.28044 264.170558,131.057706 266.19398,128.317308 C268.830559,125.455114 270.639348,121.709959 271.620401,117.081731 C272.540138,112.453502 273,103.593014 273,90.5 C273,77.4069858 272.540138,68.4856007 271.620401,63.7355769 C270.639348,59.2291441 268.830559,55.5448861 266.19398,52.6826923 C264.170558,49.942294 261.472704,47.658663 258.100334,45.8317308 C254.544018,44.0656963 250.343948,43.1217955 245.5,43 C240.717367,43.1217955 236.60927,44.0656963 233.175585,45.8317308 C229.680585,47.658663 226.8601,49.942294 224.714047,52.6826923 C222.077467,55.5448861 220.329993,59.2291441 219.471572,63.7355769 C218.490519,68.4856007 218,77.4069858 218,90.5 Z M315.617204,33 L334.944086,33 L334.944086,61.9394387 L349,61.9394387 L349,76.5007386 L334.944086,76.5007386 L334.944086,131.906942 C334.820788,136.730206 337.101769,139.080749 341.787097,138.958641 L349,138.958641 L349,157 L338.92043,157 C332.139034,157 326.590703,154.924196 322.275269,150.772526 C317.836559,146.804018 315.617204,141.06503 315.617204,133.555391 L315.617204,76.5007386 L306,76.5007386 L306,61.9394387 L315.617204,61.9394387 L315.617204,33 Z M368.617204,33 L387.944086,33 L387.944086,61.9394387 L402,61.9394387 L402,76.5007386 L387.944086,76.5007386 L387.944086,131.906942 C387.820788,136.730206 390.101769,139.080749 394.787097,138.958641 L402,138.958641 L402,157 L391.92043,157 C385.139034,157 379.590703,154.924196 375.275269,150.772526 C370.836559,146.804018 368.617204,141.06503 368.617204,133.555391 L368.617204,76.5007386 L359,76.5007386 L359,61.9394387 L368.617204,61.9394387 L368.617204,33 Z M415,109.953904 C415,99.8742049 415.830599,92.1301619 417.491822,86.7215428 C419.214572,81.4358469 421.860185,76.9799491 425.428738,73.3537159 C428.07439,70.1577137 431.765942,67.2997931 436.503505,64.7798683 C441.179541,62.3828667 447.178312,61.1229232 454.5,61 C462.067795,61.1229232 468.189618,62.3828667 472.865654,64.7798683 C477.480163,67.2997931 481.048663,70.1577137 483.571262,73.3537159 C487.385922,76.9799491 490.093061,81.4358469 491.692757,86.7215428 C493.230927,92.1301619 494,99.8742049 494,109.953904 C494,120.033603 493.230927,127.716186 491.692757,133.001881 C490.093061,138.287577 487.385922,142.866396 483.571262,146.738476 C482.340726,148.152092 480.833342,149.534957 479.049065,150.887112 C477.449369,152.423651 475.388252,153.745056 472.865654,154.851364 C468.189618,157.494212 462.067795,158.877077 454.5,159 C447.178312,158.877077 441.179541,157.494212 436.503505,154.851364 C431.765942,152.454362 428.07439,149.750093 425.428738,146.738476 C421.860185,142.866396 419.214572,138.287577 417.491822,133.001881 C415.830599,127.716186 415,120.033603 415,109.953904 Z M474,109.637209 C474,102.868183 473.695589,97.9286977 473.086758,94.8186047 C472.477927,91.830476 471.229842,89.20828 469.342466,86.951938 C467.942154,84.8175604 465.87216,83.1405746 463.13242,81.9209302 C460.514447,80.6403037 457.470337,80 454,80 C450.773195,80 447.789968,80.6403037 445.050228,81.9209302 C442.432255,83.1405746 440.301378,84.8175604 438.657534,86.951938 C437.01369,89.20828 435.826488,91.830476 435.09589,94.8186047 C434.365293,97.9286977 434,102.807202 434,109.454264 C434,116.040343 434.365293,120.857866 435.09589,123.906977 C435.826488,127.01707 437.01369,129.761228 438.657534,132.139535 C440.301378,133.969001 442.432255,135.585006 445.050228,136.987597 C447.789968,138.329206 450.773195,139 454,139 C457.470337,139 460.514447,138.329206 463.13242,136.987597 C465.87216,135.585006 467.942154,133.969001 469.342466,132.139535 C471.229842,129.761228 472.477927,127.01707 473.086758,123.906977 C473.695589,120.857866 474,116.101324 474,109.637209 Z" id="Otto" fill="#D32F2F" fill-rule="nonzero"></path>
    </g>
</svg>